/* XPM */
static char *xcas[] = {
/* columns rows colors chars-per-pixel */
"32 26 143 2",
"   c #352DFB",
".  c #4400FA",
"X  c #5011FB",
"o  c #4024FB",
"O  c #5923FB",
"+  c #5E2FFB",
"@  c #6901FA",
"#  c #6A15FB",
"$  c #6D1BFB",
"%  c #692FFB",
"&  c #7E26FB",
"*  c #5159FC",
"=  c #6E6AFC",
"-  c #6B7DFC",
";  c #717CFC",
":  c #66A7FC",
">  c #8303FA",
",  c #8814FB",
"<  c #9501FA",
"1  c #A221FB",
"2  c #AC2FFB",
"3  c #AE32FB",
"4  c #8643FB",
"5  c #8349FC",
"6  c #8E4FFC",
"7  c #865BFC",
"8  c #8955FC",
"9  c #9246FC",
"0  c #964CFC",
"q  c #9C49FC",
"w  c #925FFC",
"e  c #9563FC",
"r  c #9C6EFC",
"t  c #A647FC",
"y  c #AE4CFC",
"u  c #A154FC",
"i  c #AC55FC",
"p  c #AF59FC",
"a  c #B544FC",
"s  c #B64EFC",
"d  c #B94DFC",
"f  c #B659FC",
"g  c #BB52FC",
"h  c #BD59FC",
"j  c #AA6BFC",
"k  c #B065FC",
"l  c #B26BFC",
"z  c #B270FC",
"x  c #B47BFC",
"c  c #BC76FC",
"v  c #B97DFC",
"b  c #C366FC",
"n  c #C46AFC",
"m  c #C672FC",
"M  c #C57AFC",
"N  c #C873FC",
"B  c #CB78FC",
"V  c #8A89FD",
"C  c #9298FD",
"Z  c #8EAAFD",
"A  c #9DB5FD",
"S  c #AA82FD",
"D  c #A98EFD",
"F  c #A496FD",
"G  c #A59DFD",
"H  c #AA95FD",
"J  c #AB98FD",
"K  c #B08AFD",
"L  c #BB8BFD",
"P  c #BB9DFD",
"I  c #A3A4FD",
"U  c #ABA5FD",
"Y  c #ABABFD",
"T  c #B5ABFD",
"R  c #BCA5FD",
"E  c #BBAAFD",
"W  c #BCB4FE",
"Q  c #BCBAFD",
"!  c #9EF2F6",
"~  c #A5C7FD",
"^  c #ABC0FD",
"/  c #A6D4FD",
"(  c #B0C3FD",
")  c #C38AFD",
"_  c #CE82FD",
"`  c #C88DFD",
"'  c #C495FD",
"]  c #C19AFD",
"[  c #CD92FD",
"{  c #D38DFD",
"}  c #D793FD",
"|  c #D49AFD",
" . c #DA9DFD",
".. c #C6A3FD",
"X. c #C3ABFD",
"o. c #CAA7FD",
"O. c #CDACFD",
"+. c #C4B5FD",
"@. c #C6B9FD",
"#. c #CCB3FD",
"$. c #CBBAFD",
"%. c #D3A3FD",
"&. c #D5ADFD",
"*. c #DCA7FD",
"=. c #DDAEFD",
"-. c #D5B4FD",
";. c #D3BBFD",
":. c #DCB2FD",
">. c #DABBFD",
",. c #E2B3FD",
"<. c #C7C9FE",
"1. c #CCC0FE",
"2. c #C9CEFC",
"3. c #C7D0FE",
"4. c #D6C3FE",
"5. c #D3CAFE",
"6. c #DCC2FE",
"7. c #DCCAFE",
"8. c #D5D3FE",
"9. c #DCDBFE",
"0. c #CCE4FE",
"q. c #CAE8FE",
"w. c #E2C3FE",
"e. c #E4CCFE",
"r. c #EBCFFE",
"t. c #E4D5FE",
"y. c #E6DBFE",
"u. c #EAD5FE",
"i. c #EDDCFE",
"p. c #F2DEFE",
"a. c #E2EAFE",
"s. c #ECE4FE",
"d. c #EDEAFE",
"f. c #E2F6FE",
"g. c #EAF3FE",
"h. c #EFFBFE",
"j. c #F1E4FE",
"k. c #F4ECFE",
"l. c #F9EBFE",
"z. c #F5F2FE",
"x. c #F6FAFE",
"c. c #F9F4FE",
"v. c #FEFEFE",
/* pixels */
"v.v.v.v.v.v.x.v.v.v.x.c.v.2.z.v.v.x.v.%.u.v.x.v.v.x.x.v.v.v.x.v.",
"v.v.v.v.v.v.v.v.v.v.v.v.v.G W v.v.v.e.%.&.c.v.v.v.v.v.v.v.v.v.v.",
"v.v.v.v.v.v.v.e.-.j.v.v.v.R H c.v.v.e.v.p.j.v.v.v.d.v.v.v.v.v.v.",
"v.v.v.v.v.v.j.-.v.c.v.v.x.4.w 4.z.v.v.v.v.v.v.v.;.J v.v.v.v.v.v.",
"v.v.v.v.v.v.c.>.6.j.v.v.c.$.8 ..j.v.v.v.v.v.x.7.e i.v.v.v.v.v.v.",
"v.v.v.v.v.v.v.x.i.v.v.v.v.-.t.-.l.x.l.v.v.i.L 0 7.v.v.v.v.v.v.v.",
"v.v.v.v.v.v.v.v.v.v.v.v.c.s.l u %.>.i.w.v.&.#.z i.v.v.c.u.l.v.v.",
"v.v.v.g.( 8.z.v.v.v.v.j.e.-.q @ z k.v.w.c ) >.,.c.v.v.k. .z.v.v.",
"v.v.v.v.3.= F D X.t.v.>.v.u.' v e.` [ %.> , &.v.v.v.v.v.e.,.v.v.",
"v.v.v.v.v.d.+.+ @.#.L o.6.i c.e.z. .p.w.p ) :.w.c.v.v.v.i.j.v.v.",
"v.v.v.v.v.v.z.7.#.' @ & 4.p.b c.z.h l.e.v.| v.j.i.v.v.v.v.v.v.v.",
"v.v.v.v.c.v.v.c.c.#.9 x &.s.*.h =.g x.,.{ M r.r.p.v.c.v.v.v.v.v.",
"v.v.>.7.>.v.v.v.k.;.s.#.l.r.j.a < 2 g b r.c.M y %.=.%.=.u.u.k.v.",
"v.v.t.j t.v.v.v.e.l.l.v | B d 3 < < h v.l.,.f > f e.k t ' x ..j.",
"v.c.>.z.>.c.v.v.v.O.7.;.k.y.v.a 1 a m s =.l.[ M w.,.>.u.z.c.v.v.",
"v.v.v.v.v.v.v.c.y...$ 6 O.k.N _ u.s v.p.,.k i.p.i.v.v.v.v.v.v.v.",
"v.v.v.v.v.v.s.T $.P # 4 ;.:.} c.d.n c.$.d.+.z.y.p.v.v.v.v.v.v.v.",
"v.v.v.v.v.2.U o T #.>.;.s.j z.;.x. .6.;.% 7 R t.v.v.v.v.v.v.v.v.",
"v.v.v.x.~ - Y 1.;.d.v.4.v.s.r 8 X.] o.X.X O X.z.v.v.v.v.v.v.v.v.",
"v.v.v.h.0.x.v.v.v.v.v.z.7.X.5 . r z.v.$.R P 5.+.d.v.v.v.v.v.v.v.",
"v.v.v.v.v.v.v.v.v.v.v.v.v.s.K S 7.;.t.y.v.@.C * 9.v.v.v.v.v.v.v.",
"v.v.v.v.v.v.v.v.v.v.v.v.v.E 8.+.s.v.v.v.v.d.I ; A x.v.v.v.v.v.v.",
"v.v.v.v.v.v.v.v.v.v.v.v.z.Q   G d.v.v.v.v.v.v.a.: q.v.v.v.v.v.v.",
"v.v.v.v.v.v.v.v.v.v.v.v.v.<.V 8.x.v.v.v.v.v.v.v.f.! v.v.v.v.v.v.",
"v.v.v.v.v.v.v.v.v.v.v.v.v.A Z v.v.v.v.v.v.v.v.v.v.v.v.v.v.v.v.v.",
"v.v.v.v.v.v.v.v.v.v.v.v.v./ 0.v.v.v.v.v.v.v.v.v.v.v.v.v.v.v.v.v."
};
